<?xml version="1.0" encoding="utf-8"?>
<!-- Generator: Adobe Illustrator 22.1.0, SVG Export Plug-In . SVG Version: 6.00 Build 0)  -->
<svg version="1.1" id="Layer_1" xmlns="http://www.w3.org/2000/svg" xmlns:xlink="http://www.w3.org/1999/xlink" x="0px" y="0px"
	 viewBox="0 0 173.3 100.6" style="enable-background:new 0 0 173.3 100.6;" xml:space="preserve">
<style type="text/css">
	.st0{fill:#FFFFFF;}
</style>
<title>triangle-up</title>
<path class="st0" d="M92.9,2.3c-1.5,2.3-0.8,5.4,1.5,6.9l56.7,36.1H5c-2.8,0-5,2.2-5,5s2.2,5,5,5h146.1L94.5,91.4
	c-2.3,1.5-3,4.6-1.5,6.9s4.6,3,6.9,1.5L171,54.5c1.4-0.9,2.3-2.5,2.3-4.2s-0.9-3.3-2.3-4.2L99.9,0.8C99.1,0.3,98.1,0,97.2,0
	C95.5,0,93.9,0.8,92.9,2.3z"/>
</svg>
